<svg viewBox="0 0 100 100" xmlns="http://www.w3.org/2000/svg"><defs><linearGradient id="a" x1="0" x2="1" y1="1" y2="0"><stop stop-color="rgba(214, 90, 49, 1)" offset="0%"/><stop stop-color="rgba(251, 168, 31, 1)" offset="100%"/></linearGradient></defs><path fill="url(#a)" d="M27.8-33.6c6.7 6.1 9.4 16.3 11.3 26.8 1.9 10.4 3 21.1-1.5 28.2-4.5 7.1-14.5 10.8-24.5 14.3s-19.9 6.9-29.1 5c-9.2-1.9-17.7-9.1-21.9-18-4.1-8.9-3.9-19.5-1.9-29.5 2.1-10 5.9-19.5 12.8-25.5 7-6 17-8.4 27.3-8.7 10.3-.4 20.8 1.4 27.5 7.4Z" transform="translate(50 50)" style="transition:all .3s ease 0s"/></svg>